HIERARCHY
ROOT Hips
{
	OFFSET 0.000000 0.000000 0.000000
	CHANNELS 6 Xposition Yposition Zposition Zrotation Yrotation Xrotation 
	JOINT LHipJoint
	{
		OFFSET 0.000000 0.000000 0.000000
		CHANNELS 3 Zrotation Yrotation Xrotation
		JOINT LeftUpLeg
		{
			OFFSET 1.363060 -1.794630 0.839290
			CHANNELS 3 Zrotation Yrotation Xrotation
			JOINT LeftLeg
			{
				OFFSET 2.448110 -6.726130 0.000000
				CHANNELS 3 Zrotation Yrotation Xrotation
				JOINT LeftFoot
				{
					OFFSET 2.562200 -7.039590 0.000000
					CHANNELS 3 Zrotation Yrotation Xrotation
					JOINT LeftToeBase
					{
						OFFSET 0.157640 -0.433110 2.322550
						CHANNELS 3 Zrotation Yrotation Xrotation
						End Site
						{
							OFFSET 0.000000 0.000000 0.000000
						}
					}
				}
			}
		}
	}
	JOINT RHipJoint
	{
		OFFSET 0.000000 0.000000 0.000000
		CHANNELS 3 Zrotation Yrotation Xrotation
		JOINT RightUpLeg
		{
			OFFSET -1.305520 -1.794630 0.839290
			CHANNELS 3 Zrotation Yrotation Xrotation
			JOINT RightLeg
			{
				OFFSET -2.542530 -6.985550 0.000000
				CHANNELS 3 Zrotation Yrotation Xrotation
				JOINT RightFoot
				{
					OFFSET -2.568260 -7.056230 0.000000
					CHANNELS 3 Zrotation Yrotation Xrotation
					JOINT RightToeBase
					{
						OFFSET -0.164730 -0.452590 2.363150
						CHANNELS 3 Zrotation Yrotation Xrotation
						End Site
						{
							OFFSET 0.000000 0.000000 0.000000
						}
					}
				}
			}
		}
	}
	JOINT LowerBack
	{
		OFFSET 0.000000 0.000000 0.000000
		CHANNELS 3 Zrotation Yrotation Xrotation
		JOINT Spine
		{
			OFFSET 0.028270 2.035590 -0.193380
			CHANNELS 3 Zrotation Yrotation Xrotation
			JOINT Spine1
			{
				OFFSET 0.056720 2.048850 -0.042750
				CHANNELS 3 Zrotation Yrotation Xrotation
				JOINT Neck
				{
					OFFSET 0.000000 0.000000 0.000000
					CHANNELS 3 Zrotation Yrotation Xrotation
					JOINT Neck1
					{
						OFFSET -0.054170 1.746240 0.172020
						CHANNELS 3 Zrotation Yrotation Xrotation
						JOINT Head
						{
							OFFSET 0.104070 1.761360 -0.123970
							CHANNELS 3 Zrotation Yrotation Xrotation
							End Site
							{
								OFFSET 0.000000 0.000000 0.000000
							}
						}
					}
				}
				JOINT LeftShoulder
				{
					OFFSET 0.000000 0.000000 0.000000
					CHANNELS 3 Zrotation Yrotation Xrotation
					JOINT LeftArm
					{
						OFFSET 3.362410 1.200890 -0.311210
						CHANNELS 3 Zrotation Yrotation Xrotation
						JOINT LeftForeArm
						{
							OFFSET 4.983000 -0.000000 -0.000000
							CHANNELS 3 Zrotation Yrotation Xrotation
							JOINT LeftHand
							{
								OFFSET 3.483560 -0.000000 -0.000000
								CHANNELS 3 Zrotation Yrotation Xrotation
								JOINT LeftFingerBase
								{
									OFFSET 0.000000 0.000000 0.000000
									CHANNELS 3 Zrotation Yrotation Xrotation
									JOINT LeftHandIndex1
									{
										OFFSET 0.715260 -0.000000 -0.000000
										CHANNELS 3 Zrotation Yrotation Xrotation
										End Site
										{
											OFFSET 0.000000 0.000000 0.000000
										}
									}
								}
								JOINT LThumb
								{
									OFFSET 0.000000 0.000000 0.000000
									CHANNELS 3 Zrotation Yrotation Xrotation
									End Site
									{
										OFFSET 0.000000 0.000000 0.000000
									}
								}
							}
						}
					}
				}
				JOINT RightShoulder
				{
					OFFSET 0.000000 0.000000 0.000000
					CHANNELS 3 Zrotation Yrotation Xrotation
					JOINT RightArm
					{
						OFFSET -3.136600 1.374050 -0.404650
						CHANNELS 3 Zrotation Yrotation Xrotation
						JOINT RightForeArm
						{
							OFFSET -5.241900 -0.000000 -0.000000
							CHANNELS 3 Zrotation Yrotation Xrotation
							JOINT RightHand
							{
								OFFSET -3.444170 -0.000000 -0.000000
								CHANNELS 3 Zrotation Yrotation Xrotation
								JOINT RightFingerBase
								{
									OFFSET 0.000000 0.000000 0.000000
									CHANNELS 3 Zrotation Yrotation Xrotation
									JOINT RightHandIndex1
									{
										OFFSET -0.622530 -0.000000 -0.000000
										CHANNELS 3 Zrotation Yrotation Xrotation
										End Site
										{
											OFFSET 0.000000 0.000000 0.000000
										}
									}
								}
								JOINT RThumb
								{
									OFFSET 0.000000 0.000000 0.000000
									CHANNELS 3 Zrotation Yrotation Xrotation
									End Site
									{
										OFFSET 0.000000 0.000000 0.000000
									}
								}
							}
						}
					}
				}
			}
		}
	}
}
MOTION
Frames: 6
Frame Time: 0.008333
1.315713 17.984834 -29.545529 -0.414658 -2.141950 -0.594427 -1.440445 5.512200 4.631424 -18.325927 -7.205771 -14.677542 -0.916022 4.875298 19.464489 1.673118 -6.305139 6.522961 0.075500 -1.772900 -4.878400 0.228248 -4.779934 4.011848 19.817203 9.041680 -21.938408 -12.428772 -16.460689 66.237631 0.973702 -5.911460 10.741878 -0.003300 -0.369500 1.015100 -0.552497 -0.016520 6.507852 2.793358 0.086836 5.376352 1.415945 0.011801 -8.271909 -5.330627 -4.107263 -15.973537 1.692321 -4.198959 23.654502 -0.524800 -1.764300 10.699200 -7.200413 2.832897 -1.206499 -80.043774 3.981009 22.600212 9.557755 -16.595669 -1.384332 -0.507089 -0.624846 -0.442498 29.170104 17.315267 9.955400 -7.125000 0.000000 0.000000 1.654600 50.405000 0.220500 11.213010 -1.845698 -2.282538 73.506517 4.549403 7.960668 -10.897615 22.610902 -2.592280 1.017444 -0.416941 4.879306 -18.598055 22.335240 -7.790700 7.125000 0.000000 0.000000 5.811800 -6.303200 5.165900 
1.321599 17.983637 -29.388709 -0.160653 -1.794578 -0.555890 -1.428556 5.521814 4.658490 -18.705837 -7.036938 -14.198538 -0.886790 4.854586 19.529889 1.740114 -6.601820 5.697903 0.100000 -2.039600 -5.615200 0.214667 -4.749613 3.934742 19.446310 9.022491 -23.016328 -12.306040 -16.516000 65.921575 1.012283 -5.902549 9.812875 -0.006100 -0.503800 1.384400 -1.040890 -0.114169 7.071255 2.975329 -0.093059 4.486303 1.802793 -0.063034 -9.186358 -5.502270 -3.956791 -14.482770 1.588932 -4.098301 23.643944 -0.501800 -1.745700 10.420500 -7.183302 2.806891 -1.171132 -79.969781 4.832580 23.091154 9.811869 -17.007497 -1.461304 -0.493102 -0.639814 -0.430571 28.899322 17.938290 10.174400 -7.125000 0.000000 0.000000 1.267600 51.066100 0.189500 11.236898 -1.915614 -2.361714 73.225817 2.683465 8.375096 -11.013120 22.873017 -2.650045 1.034163 -0.398134 4.302021 -18.636378 22.395974 -7.827800 7.125000 0.000000 0.000000 5.784300 -6.245400 5.147700 
1.321399 17.982240 -29.231590 -0.211078 -1.186814 -0.531927 -1.403872 5.565433 4.732058 -18.694789 -7.099571 -13.931165 -0.803801 4.979848 19.946777 1.878143 -7.155748 4.920115 0.097200 -2.010800 -5.535400 0.199054 -4.696280 3.902575 19.505670 8.889231 -24.082539 -12.132968 -16.508253 65.468801 0.990021 -5.670514 8.967622 -0.007000 -0.538700 1.480300 -0.756977 -0.277893 6.298835 2.690576 -0.270092 5.759741 1.565453 -0.173104 -7.899159 -4.986779 -4.299626 -17.058146 1.696339 -4.445776 23.851502 -0.615400 -1.842000 10.957200 -7.200400 2.830301 -1.206344 -79.266590 2.266848 24.388933 9.895029 -17.160374 -1.487929 -0.490957 -0.664255 -1.226006 29.288781 18.943618 10.869300 -7.125000 0.000000 0.000000 1.505500 52.275200 0.269700 11.182850 -1.824513 -2.290967 73.866669 4.264708 7.682594 -11.067581 22.863745 -2.663848 1.028404 -0.387480 4.225544 -18.855134 22.078447 -7.811300 7.125000 0.000000 0.000000 5.624900 -6.549200 4.971200 
1.318905 17.965680 -29.076466 -0.261828 -0.647393 -0.480020 -1.378613 5.583043 4.771076 -18.676245 -7.070315 -13.716956 -0.731988 5.085661 20.302496 2.022251 -7.748506 4.336850 0.076300 -1.781400 -4.902000 0.186612 -4.641959 3.846907 19.566195 8.797603 -25.141897 -11.927324 -16.498616 64.964581 0.853772 -5.030259 8.247398 -0.006600 -0.524500 1.441200 -0.647850 -0.337611 6.406445 2.521259 -0.329440 6.016189 1.453506 -0.217916 -7.783704 -4.500188 -4.591434 -18.291950 1.652898 -4.859450 24.225824 -0.772900 -1.980500 11.293000 -7.202189 2.852828 -1.211911 -78.645232 0.985375 25.557665 9.982834 -17.321189 -1.517577 -0.488033 -0.672579 -1.763860 29.554795 19.160104 11.100600 -7.125000 0.000000 0.000000 1.748500 52.571900 0.325900 11.153848 -1.800810 -2.268940 74.351422 4.397371 6.881555 -11.127641 22.933420 -2.690093 1.023269 -0.388972 4.248019 -18.761429 22.102913 -7.778600 7.125000 0.000000 0.000000 5.689100 -6.536200 5.030000 
1.319304 17.938845 -28.923337 -0.192207 -0.272417 -0.508443 -1.307005 5.528334 4.730279 -18.894989 -6.852006 -13.378486 -0.638163 5.185298 20.715727 2.129092 -8.193295 3.645268 0.089700 -1.931300 -5.315900 0.220504 -4.638744 3.769430 19.370695 8.851326 -26.093810 -11.679401 -16.509014 64.290719 0.787454 -4.709879 7.631582 -0.004000 -0.409500 1.125100 -2.331767 -1.256135 7.017764 4.437393 -1.722394 3.667186 3.579899 -0.767919 -9.579239 -7.101183 -3.108546 -11.360255 1.652768 -2.976088 22.472848 -0.072500 -1.383700 9.526300 -7.213292 2.683662 -1.119902 -80.813045 5.089779 22.655399 10.567699 -18.163653 -1.694729 -0.492963 -0.671917 -1.469799 29.649800 18.843540 10.977900 -7.125000 0.000000 0.000000 1.901900 52.242000 0.339200 11.258741 -2.001436 -2.509620 71.876690 0.272650 10.810515 -11.140069 23.230113 -2.728273 1.049495 -0.347207 3.323862 -18.515934 21.980576 -7.634900 7.125000 0.000000 0.000000 5.819800 -6.725800 5.125300 
1.319304 17.925478 -28.772103 -0.014517 -0.041198 -0.633553 -1.302797 5.579855 4.817092 -19.117710 -6.600645 -13.004192 -0.543025 5.296303 21.115262 2.257519 -8.641139 2.655229 0.125000 -2.278800 -6.276900 0.201554 -4.594115 3.726114 19.141884 8.832702 -26.915998 -11.388058 -16.448590 63.402320 0.835939 -4.830325 6.978527 -0.000800 -0.187700 0.515600 -1.973493 -1.010113 6.988250 3.736708 -1.364842 4.560811 2.966903 -0.642188 -9.035961 -6.172318 -3.724996 -13.531699 1.706414 -3.767624 22.753890 -0.306400 -1.660500 9.982800 -7.191752 2.717862 -1.148347 -79.552251 3.005066 25.012319 10.786358 -18.553011 -1.772302 -0.474833 -0.697942 -2.350583 29.735467 19.894950 11.574700 -7.125000 0.000000 0.000000 1.799000 53.448500 0.373900 11.228310 -1.948848 -2.452780 72.924055 1.254845 8.929410 -11.122370 23.113758 -2.710983 1.040204 -0.369910 3.449062 -18.411242 22.255329 -7.683400 7.125000 0.000000 0.000000 5.913500 -6.436400 5.242000 
